<mxfile host="app.diagrams.net" agent="Mozilla/5.0 (Windows NT 10.0; Win64; x64) AppleWebKit/537.36 (KHTML, like Gecko) Chrome/132.0.0.0 Safari/537.36 Edg/132.0.0.0" version="26.0.11">
  <diagram id="C5RBs43oDa-KdzZeNtuy" name="Page-1">
    <mxGraphModel dx="1042" dy="573" grid="1" gridSize="10" guides="1" tooltips="1" connect="1" arrows="1" fold="1" page="1" pageScale="1" pageWidth="827" pageHeight="1169" math="0" shadow="0">
      <root>
        <mxCell id="WIyWlLk6GJQsqaUBKTNV-0" />
        <mxCell id="WIyWlLk6GJQsqaUBKTNV-1" parent="WIyWlLk6GJQsqaUBKTNV-0" />
        <mxCell id="lJqY30IZKZBp1Cp6Lw-M-12" style="edgeStyle=orthogonalEdgeStyle;rounded=0;orthogonalLoop=1;jettySize=auto;html=1;exitX=0.5;exitY=1;exitDx=0;exitDy=0;entryX=0.5;entryY=0;entryDx=0;entryDy=0;" edge="1" parent="WIyWlLk6GJQsqaUBKTNV-1" source="lJqY30IZKZBp1Cp6Lw-M-1" target="lJqY30IZKZBp1Cp6Lw-M-3">
          <mxGeometry relative="1" as="geometry" />
        </mxCell>
        <mxCell id="lJqY30IZKZBp1Cp6Lw-M-1" value="Read Input Documents (Main Categories + Comparison Documents)" style="ellipse;whiteSpace=wrap;html=1;" vertex="1" parent="WIyWlLk6GJQsqaUBKTNV-1">
          <mxGeometry x="240" y="40" width="240" height="80" as="geometry" />
        </mxCell>
        <mxCell id="lJqY30IZKZBp1Cp6Lw-M-13" style="edgeStyle=orthogonalEdgeStyle;rounded=0;orthogonalLoop=1;jettySize=auto;html=1;exitX=0.5;exitY=1;exitDx=0;exitDy=0;entryX=0.5;entryY=0;entryDx=0;entryDy=0;" edge="1" parent="WIyWlLk6GJQsqaUBKTNV-1" source="lJqY30IZKZBp1Cp6Lw-M-3" target="lJqY30IZKZBp1Cp6Lw-M-4">
          <mxGeometry relative="1" as="geometry" />
        </mxCell>
        <mxCell id="lJqY30IZKZBp1Cp6Lw-M-3" value="Preprocessing (Tokenization, Stopword Removal, Stemming)" style="rounded=0;whiteSpace=wrap;html=1;" vertex="1" parent="WIyWlLk6GJQsqaUBKTNV-1">
          <mxGeometry x="240" y="160" width="240" height="80" as="geometry" />
        </mxCell>
        <mxCell id="lJqY30IZKZBp1Cp6Lw-M-14" style="edgeStyle=orthogonalEdgeStyle;rounded=0;orthogonalLoop=1;jettySize=auto;html=1;exitX=0.5;exitY=1;exitDx=0;exitDy=0;entryX=0.5;entryY=0;entryDx=0;entryDy=0;" edge="1" parent="WIyWlLk6GJQsqaUBKTNV-1" source="lJqY30IZKZBp1Cp6Lw-M-4" target="lJqY30IZKZBp1Cp6Lw-M-5">
          <mxGeometry relative="1" as="geometry" />
        </mxCell>
        <mxCell id="lJqY30IZKZBp1Cp6Lw-M-4" value="Save Pre-Processed Files into categorized Folders" style="rounded=0;whiteSpace=wrap;html=1;" vertex="1" parent="WIyWlLk6GJQsqaUBKTNV-1">
          <mxGeometry x="240" y="280" width="240" height="80" as="geometry" />
        </mxCell>
        <mxCell id="lJqY30IZKZBp1Cp6Lw-M-15" style="edgeStyle=orthogonalEdgeStyle;rounded=0;orthogonalLoop=1;jettySize=auto;html=1;exitX=0.5;exitY=1;exitDx=0;exitDy=0;entryX=0.5;entryY=0;entryDx=0;entryDy=0;" edge="1" parent="WIyWlLk6GJQsqaUBKTNV-1" source="lJqY30IZKZBp1Cp6Lw-M-5" target="lJqY30IZKZBp1Cp6Lw-M-6">
          <mxGeometry relative="1" as="geometry" />
        </mxCell>
        <mxCell id="lJqY30IZKZBp1Cp6Lw-M-5" value="Perform Semantic Similarity Analysis (Using OpenAI Embeddings)" style="rounded=0;whiteSpace=wrap;html=1;" vertex="1" parent="WIyWlLk6GJQsqaUBKTNV-1">
          <mxGeometry x="240" y="400" width="240" height="80" as="geometry" />
        </mxCell>
        <mxCell id="lJqY30IZKZBp1Cp6Lw-M-17" style="edgeStyle=orthogonalEdgeStyle;rounded=0;orthogonalLoop=1;jettySize=auto;html=1;exitX=0.5;exitY=1;exitDx=0;exitDy=0;entryX=0.5;entryY=0;entryDx=0;entryDy=0;" edge="1" parent="WIyWlLk6GJQsqaUBKTNV-1" source="lJqY30IZKZBp1Cp6Lw-M-6" target="lJqY30IZKZBp1Cp6Lw-M-7">
          <mxGeometry relative="1" as="geometry" />
        </mxCell>
        <mxCell id="lJqY30IZKZBp1Cp6Lw-M-6" value="Generate Embedding Vectors" style="rounded=0;whiteSpace=wrap;html=1;" vertex="1" parent="WIyWlLk6GJQsqaUBKTNV-1">
          <mxGeometry x="240" y="520" width="240" height="80" as="geometry" />
        </mxCell>
        <mxCell id="lJqY30IZKZBp1Cp6Lw-M-18" style="edgeStyle=orthogonalEdgeStyle;rounded=0;orthogonalLoop=1;jettySize=auto;html=1;exitX=0.5;exitY=1;exitDx=0;exitDy=0;entryX=0.5;entryY=0;entryDx=0;entryDy=0;" edge="1" parent="WIyWlLk6GJQsqaUBKTNV-1" source="lJqY30IZKZBp1Cp6Lw-M-7" target="lJqY30IZKZBp1Cp6Lw-M-8">
          <mxGeometry relative="1" as="geometry" />
        </mxCell>
        <mxCell id="lJqY30IZKZBp1Cp6Lw-M-7" value="Compute Cosine Similarity Scores" style="rounded=0;whiteSpace=wrap;html=1;" vertex="1" parent="WIyWlLk6GJQsqaUBKTNV-1">
          <mxGeometry x="240" y="640" width="240" height="60" as="geometry" />
        </mxCell>
        <mxCell id="lJqY30IZKZBp1Cp6Lw-M-19" style="edgeStyle=orthogonalEdgeStyle;rounded=0;orthogonalLoop=1;jettySize=auto;html=1;entryX=0.5;entryY=0;entryDx=0;entryDy=0;" edge="1" parent="WIyWlLk6GJQsqaUBKTNV-1" source="lJqY30IZKZBp1Cp6Lw-M-8" target="lJqY30IZKZBp1Cp6Lw-M-9">
          <mxGeometry relative="1" as="geometry" />
        </mxCell>
        <mxCell id="lJqY30IZKZBp1Cp6Lw-M-8" value="Export Results in CSV Format" style="rounded=0;whiteSpace=wrap;html=1;" vertex="1" parent="WIyWlLk6GJQsqaUBKTNV-1">
          <mxGeometry x="240" y="760" width="240" height="80" as="geometry" />
        </mxCell>
        <mxCell id="lJqY30IZKZBp1Cp6Lw-M-21" style="edgeStyle=orthogonalEdgeStyle;rounded=0;orthogonalLoop=1;jettySize=auto;html=1;exitX=0.5;exitY=1;exitDx=0;exitDy=0;" edge="1" parent="WIyWlLk6GJQsqaUBKTNV-1" source="lJqY30IZKZBp1Cp6Lw-M-9" target="lJqY30IZKZBp1Cp6Lw-M-10">
          <mxGeometry relative="1" as="geometry" />
        </mxCell>
        <mxCell id="lJqY30IZKZBp1Cp6Lw-M-9" value="Generate Data Visualization (Python/Excel)" style="rounded=0;whiteSpace=wrap;html=1;" vertex="1" parent="WIyWlLk6GJQsqaUBKTNV-1">
          <mxGeometry x="240" y="880" width="240" height="60" as="geometry" />
        </mxCell>
        <mxCell id="lJqY30IZKZBp1Cp6Lw-M-10" value="Process Completed" style="ellipse;whiteSpace=wrap;html=1;" vertex="1" parent="WIyWlLk6GJQsqaUBKTNV-1">
          <mxGeometry x="240" y="980" width="240" height="80" as="geometry" />
        </mxCell>
      </root>
    </mxGraphModel>
  </diagram>
</mxfile>
